<svg xmlns="http://www.w3.org/2000/svg" width="1200" height="1200" viewBox="0 0 1200 1200" role="img" aria-label="Developer placeholder portrait">
  <defs>
    <linearGradient id="g" x1="0" y1="0" x2="1" y2="1">
      <stop offset="0" stop-color="#e07a2f" stop-opacity="0.35" />
      <stop offset="1" stop-color="#f2d7a2" stop-opacity="0.25" />
    </linearGradient>
    <radialGradient id="r" cx="35%" cy="25%" r="80%">
      <stop offset="0" stop-color="#f2d7a2" stop-opacity="0.22" />
      <stop offset="1" stop-color="#0b1110" stop-opacity="0" />
    </radialGradient>
    <filter id="soft" x="-20%" y="-20%" width="140%" height="140%">
      <feGaussianBlur in="SourceGraphic" stdDeviation="2" />
    </filter>
  </defs>

  <rect width="1200" height="1200" fill="#0f1716" />
  <rect width="1200" height="1200" fill="url(#r)" />

  <g opacity="0.9">
    <circle cx="860" cy="260" r="220" fill="url(#g)" />
    <circle cx="320" cy="860" r="260" fill="url(#g)" opacity="0.6" />
  </g>

  <g filter="url(#soft)" opacity="0.9">
    <path d="M600 265c-110 0-200 90-200 200s90 200 200 200 200-90 200-200-90-200-200-200z" fill="#eaf1ed" fill-opacity="0.08" />
    <path d="M370 980c24-168 164-290 330-290s306 122 330 290" fill="#eaf1ed" fill-opacity="0.08" />
  </g>

  <g>
    <text x="72" y="106" fill="#eaf1ed" fill-opacity="0.78" font-family="IBM Plex Sans, ui-sans-serif, system-ui, -apple-system, Segoe UI, Arial, sans-serif" font-size="44" font-weight="600" letter-spacing="0.06em">YOUR PHOTO</text>
    <text x="72" y="158" fill="#eaf1ed" fill-opacity="0.58" font-family="IBM Plex Sans, ui-sans-serif, system-ui, -apple-system, Segoe UI, Arial, sans-serif" font-size="24" font-weight="400">Replace assets/developer.svg with a real headshot.</text>
  </g>

  <g opacity="0.75">
    <path d="M130 1010h940" stroke="#eaf1ed" stroke-opacity="0.18" stroke-width="2" />
    <path d="M130 1080h620" stroke="#eaf1ed" stroke-opacity="0.12" stroke-width="2" />
  </g>
</svg>
